# This file uses centimeters as units for non-parametric coordinates.

mtllib cross1.mtl
v -0.500000 -0.125000 -0.500000
v -0.500000 -0.125000 0.500000
v -0.500000 0.125000 0.500000
v -0.500000 0.125000 -0.500000
v 0.500000 -0.125000 0.500000
v 0.500000 -0.125000 -0.500000
v 0.500000 0.125000 -0.500000
v 0.500000 0.125000 0.500000
v 0.150000 0.125000 0.500000
v 0.150000 -0.125000 0.500000
v -0.150000 0.125000 0.500000
v -0.150000 -0.125000 0.500000
v 0.150000 -0.125000 1.500000
v -0.150000 -0.125000 1.500000
v 0.150000 0.125000 1.500000
v -0.150000 0.125000 1.500000
v 0.500000 0.125000 0.150000
v 0.500000 -0.125000 0.150000
v 0.500000 0.125000 -0.150000
v 0.500000 -0.125000 -0.150000
v 0.150000 0.125000 -0.500000
v 0.150000 -0.125000 -0.500000
v -0.150000 0.125000 -0.500000
v -0.150000 -0.125000 -0.500000
v -0.500000 0.125000 -0.150000
v -0.500000 -0.125000 -0.150000
v -0.500000 0.125000 0.150000
v -0.500000 -0.125000 0.150000
v -1.500000 -0.125000 -0.150000
v -1.500000 -0.125000 0.150000
v -1.500000 0.125000 0.150000
v -1.500000 0.125000 -0.150000
v -0.150000 0.125000 -1.500000
v 0.150000 0.125000 -1.500000
v 0.150000 -0.125000 -1.500000
v -0.150000 -0.125000 -1.500000
v 1.500000 -0.125000 0.150000
v 1.500000 -0.125000 -0.150000
v 1.500000 0.125000 -0.150000
v 1.500000 0.125000 0.150000
vt 0.000000 0.000000
vt 1.000000 0.000000
vt 0.000000 1.000000
vt 1.000000 1.000000
vt 0.000000 2.000000
vt 1.000000 2.000000
vt 0.000000 3.000000
vt 1.000000 3.000000
vt 2.000000 0.000000
vt 2.000000 1.000000
vt -1.000000 0.000000
vt -1.000000 1.000000
vt 0.500000 1.000000
vt 0.500000 0.000000
vt 0.250000 1.000000
vt 0.250000 0.000000
vt 0.250000 0.000000
vt 0.500000 0.000000
vt 0.500000 1.000000
vt 0.250000 1.000000
vt 1.500000 1.000000
vt 1.500000 0.000000
vt 1.750000 1.000000
vt 1.750000 0.000000
vt 0.500000 2.000000
vt 0.500000 3.000000
vt 0.250000 2.000000
vt 0.250000 3.000000
vt -0.500000 1.000000
vt -0.500000 0.000000
vt -0.250000 1.000000
vt -0.250000 0.000000
vt -0.500000 0.000000
vt -0.250000 0.000000
vt -0.250000 1.000000
vt -0.500000 1.000000
vt 0.250000 2.000000
vt 0.500000 2.000000
vt 0.500000 3.000000
vt 0.250000 3.000000
vt 1.500000 0.000000
vt 1.750000 0.000000
vt 1.750000 1.000000
vt 1.500000 1.000000
vn -1.000000 0.000000 0.000000
vn -1.000000 0.000000 0.000000
vn -1.000000 0.000000 0.000000
vn -1.000000 0.000000 0.000000
vn 1.000000 0.000000 0.000000
vn 1.000000 0.000000 0.000000
vn 1.000000 0.000000 0.000000
vn 1.000000 0.000000 0.000000
vn 0.000000 0.000000 -1.000000
vn 0.000000 0.000000 -1.000000
vn 0.000000 0.000000 -1.000000
vn 0.000000 0.000000 -1.000000
vn 0.000000 0.000000 1.000000
vn 0.000000 0.000000 1.000000
vn 0.000000 0.000000 1.000000
vn 0.000000 0.000000 1.000000
vn 0.000000 0.000000 1.000000
vn 0.000000 0.000000 1.000000
vn 0.000000 0.000000 1.000000
vn 0.000000 0.000000 1.000000
vn 0.000000 0.000000 1.000000
vn 0.000000 0.000000 1.000000
vn 0.000000 0.000000 1.000000
vn 0.000000 0.000000 1.000000
vn 0.000000 -1.000000 0.000000
vn 0.000000 -1.000000 0.000000
vn 0.000000 -1.000000 0.000000
vn 0.000000 -1.000000 0.000000
vn 1.000000 0.000000 0.000000
vn 1.000000 0.000000 0.000000
vn 1.000000 0.000000 0.000000
vn 1.000000 0.000000 0.000000
vn 0.000000 1.000000 0.000000
vn 0.000000 1.000000 0.000000
vn 0.000000 1.000000 0.000000
vn 0.000000 1.000000 0.000000
vn -1.000000 0.000000 0.000000
vn -1.000000 0.000000 0.000000
vn -1.000000 0.000000 0.000000
vn -1.000000 0.000000 0.000000
vn 1.000000 0.000000 0.000000
vn 1.000000 0.000000 0.000000
vn 1.000000 0.000000 0.000000
vn 1.000000 0.000000 0.000000
vn 1.000000 0.000000 0.000000
vn 1.000000 0.000000 0.000000
vn 1.000000 0.000000 0.000000
vn 1.000000 0.000000 0.000000
vn 0.000000 0.000000 -1.000000
vn 0.000000 0.000000 -1.000000
vn 0.000000 0.000000 -1.000000
vn 0.000000 0.000000 -1.000000
vn 0.000000 0.000000 -1.000000
vn 0.000000 0.000000 -1.000000
vn 0.000000 0.000000 -1.000000
vn 0.000000 0.000000 -1.000000
vn -1.000000 0.000000 0.000000
vn -1.000000 0.000000 0.000000
vn -1.000000 0.000000 0.000000
vn -1.000000 0.000000 0.000000
vn -1.000000 0.000000 0.000000
vn -1.000000 0.000000 0.000000
vn -1.000000 0.000000 0.000000
vn -1.000000 0.000000 0.000000
vn 0.000000 -1.000000 0.000000
vn 0.000000 -1.000000 0.000000
vn 0.000000 -1.000000 0.000000
vn 0.000000 -1.000000 0.000000
vn 0.000000 0.000000 1.000000
vn 0.000000 0.000000 1.000000
vn 0.000000 0.000000 1.000000
vn 0.000000 0.000000 1.000000
vn 0.000000 1.000000 0.000000
vn 0.000000 1.000000 0.000000
vn 0.000000 1.000000 0.000000
vn 0.000000 1.000000 0.000000
vn 0.000000 0.000000 -1.000000
vn 0.000000 0.000000 -1.000000
vn 0.000000 0.000000 -1.000000
vn 0.000000 0.000000 -1.000000
vn 0.000000 1.000000 0.000000
vn 0.000000 1.000000 0.000000
vn 0.000000 1.000000 0.000000
vn 0.000000 1.000000 0.000000
vn 1.000000 0.000000 0.000000
vn 1.000000 0.000000 0.000000
vn 1.000000 0.000000 0.000000
vn 1.000000 0.000000 0.000000
vn 0.000000 -1.000000 0.000000
vn 0.000000 -1.000000 0.000000
vn 0.000000 -1.000000 0.000000
vn 0.000000 -1.000000 0.000000
vn -1.000000 0.000000 0.000000
vn -1.000000 0.000000 0.000000
vn -1.000000 0.000000 0.000000
vn -1.000000 0.000000 0.000000
vn 0.000000 -1.000000 0.000000
vn 0.000000 -1.000000 0.000000
vn 0.000000 -1.000000 0.000000
vn 0.000000 -1.000000 0.000000
vn 0.000000 0.000000 -1.000000
vn 0.000000 0.000000 -1.000000
vn 0.000000 0.000000 -1.000000
vn 0.000000 0.000000 -1.000000
vn 0.000000 1.000000 0.000000
vn 0.000000 1.000000 0.000000
vn 0.000000 1.000000 0.000000
vn 0.000000 1.000000 0.000000
vn 0.000000 0.000000 1.000000
vn 0.000000 0.000000 1.000000
vn 0.000000 0.000000 1.000000
vn 0.000000 0.000000 1.000000
vn 0.000000 -1.000000 0.000000
vn 0.000000 -1.000000 0.000000
vn 0.000000 -1.000000 0.000000
vn 0.000000 -1.000000 0.000000
vn 0.000000 -1.000000 0.000000
vn 0.000000 -1.000000 0.000000
vn 0.000000 -1.000000 0.000000
vn 0.000000 -1.000000 0.000000
vn 0.000000 -1.000000 0.000000
vn 0.000000 -1.000000 0.000000
vn 0.000000 -1.000000 0.000000
vn 0.000000 -1.000000 0.000000
vn 0.000000 1.000000 0.000000
vn 0.000000 1.000000 0.000000
vn 0.000000 1.000000 0.000000
vn 0.000000 1.000000 0.000000
vn 0.000000 1.000000 -0.000000
vn 0.000000 1.000000 0.000000
vn 0.000000 1.000000 0.000000
vn 0.000000 1.000000 -0.000000
vn 0.000000 1.000000 -0.000000
vn 0.000000 1.000000 0.000000
vn 0.000000 1.000000 0.000000
vn 0.000000 1.000000 -0.000000
s 1
usemtl initialShadingGroup
f 28/32/1 2/1/2 27/31/3
f 2/1/2 3/3/4 27/31/3
s 2
f 20/24/5 6/9/6 19/23/7
f 6/9/6 7/10/8 19/23/7
s 3
f 4/5/9 23/27/10 1/7/11
f 23/27/10 24/28/12 1/7/11
s 4
f 10/14/13 5/2/14 9/13/15
f 5/2/14 8/4/16 9/13/15
s 5
f 14/17/17 13/18/18 16/20/19
f 13/18/18 15/19/20 16/20/19
s 6
f 2/1/21 12/16/22 3/3/23
f 12/16/22 11/15/24 3/3/23
s 7
f 12/16/25 10/14/26 14/17/27
f 10/14/26 13/18/28 14/17/27
s 8
f 10/14/29 9/13/30 13/18/31
f 9/13/30 15/19/32 13/18/31
s 9
f 9/13/33 11/15/34 15/19/35
f 11/15/34 16/20/36 15/19/35
s 10
f 11/15/37 12/16/38 16/20/39
f 12/16/38 14/17/40 16/20/39
s 11
f 5/2/41 18/22/42 8/4/43
f 18/22/42 17/21/44 8/4/43
s 12
f 37/41/45 38/42/46 40/44/47
f 38/42/46 39/43/48 40/44/47
s 13
f 21/25/49 7/6/50 22/26/51
f 7/6/50 6/8/52 22/26/51
s 14
f 33/37/53 34/38/54 36/40/55
f 34/38/54 35/39/56 36/40/55
s 15
f 1/11/57 26/30/58 4/12/59
f 26/30/58 25/29/60 4/12/59
s 16
f 29/33/61 30/34/62 32/36/63
f 30/34/62 31/35/64 32/36/63
s 17
f 26/30/65 28/32/66 29/33/67
f 28/32/66 30/34/68 29/33/67
s 18
f 28/32/69 27/31/70 30/34/71
f 27/31/70 31/35/72 30/34/71
s 19
f 27/31/73 25/29/74 31/35/75
f 25/29/74 32/36/76 31/35/75
s 20
f 25/29/77 26/30/78 32/36/79
f 26/30/78 29/33/80 32/36/79
s 21
f 23/27/81 21/25/82 33/37/83
f 21/25/82 34/38/84 33/37/83
s 22
f 21/25/85 22/26/86 34/38/87
f 22/26/86 35/39/88 34/38/87
s 23
f 22/26/89 24/28/90 35/39/91
f 24/28/90 36/40/92 35/39/91
s 24
f 24/28/93 23/27/94 36/40/95
f 23/27/94 33/37/96 36/40/95
s 25
f 18/22/97 20/24/98 37/41/99
f 20/24/98 38/42/100 37/41/99
s 26
f 20/24/101 19/23/102 38/42/103
f 19/23/102 39/43/104 38/42/103
s 27
f 19/23/105 17/21/106 39/43/107
f 17/21/106 40/44/108 39/43/107
s 28
f 17/21/109 18/22/110 40/44/111
f 18/22/110 37/41/112 40/44/111
s 29
f 1/7/113 24/28/114 26/30/115
f 6/9/116 20/24/117 22/26/118
f 5/2/119 10/14/120 18/22/121
f 2/1/122 28/32/123 12/16/124
f 26/30/115 24/28/114 28/32/123
f 28/32/123 24/28/114 12/16/124
f 24/28/114 22/26/118 12/16/124
f 22/26/118 20/24/117 12/16/124
f 20/24/117 18/22/121 12/16/124
f 18/22/121 10/14/120 12/16/124
s 30
f 3/3/125 11/15/126 27/31/127
f 8/4/128 17/21/129 9/13/130
f 7/6/131 21/25/132 19/23/133
f 4/12/134 25/29/135 23/27/136
f 27/31/127 11/15/126 25/29/135
f 25/29/135 11/15/126 23/27/136
f 11/15/126 9/13/130 23/27/136
f 9/13/130 17/21/129 23/27/136
f 17/21/129 19/23/133 23/27/136
f 19/23/133 21/25/132 23/27/136
