# This file uses centimeters as units for non-parametric coordinates.

mtllib tetra.mtl
g default
v -8.662507 -0.205549 -6.030213
v -1.509300 -1.432845 -1.839962
v -1.457039 2.809667 -9.067077
v -4.657131 4.941545 -2.979766
vt 0.375000 0.033494
vt 0.375000 0.466506
vt 0.750000 0.250000
vt 0.250000 0.500000
vt 0.416667 0.500000
vt 0.583333 0.500000
vt 0.750000 0.500000
vt 0.500000 1.000000
vn 0.146447 -0.853553 -0.500000
vn 0.146447 -0.853553 -0.500000
vn 0.146447 -0.853553 -0.500000
vn -0.515833 -0.102650 0.850517
vn -0.515833 -0.102650 0.850517
vn -0.515833 -0.102650 0.850517
vn 0.840303 0.464841 0.278951
vn 0.840303 0.464841 0.278951
vn 0.840303 0.464841 0.278951
vn -0.505997 0.695830 -0.509693
vn -0.505997 0.695830 -0.509693
vn -0.505997 0.695830 -0.509693
s off
g pCone1
usemtl initialShadingGroup
f 1/1/1 3/3/2 2/2/3
f 1/4/4 2/5/5 4/8/6
f 2/5/7 3/6/8 4/8/9
f 3/6/10 1/7/11 4/8/12
